<svg width="117" height="84" viewBox="0 0 117 84" fill="none" xmlns="http://www.w3.org/2000/svg">
<path d="M97.7184 0.703468C84.8718 0.235468 71.5806 -0.0219324 57.915 0.00146762C44.6472 0.00146762 31.7538 0.258868 19.2582 0.703468C8.5176 1.10127 0 9.92307 0 20.6871V62.3859C0 73.1499 8.5176 81.9717 19.2816 82.3695C32.0814 82.8375 45.279 83.0949 58.8744 83.0715C72.2124 83.0715 85.176 82.8141 97.7418 82.3695C108.506 81.9717 117 73.1499 117 62.3859V20.6871C117 9.92307 108.482 1.10127 97.7184 0.703468Z" fill="#FF0000"/>
<path d="M46 24V59L77 41.5L46 24Z" fill="white"/>
</svg>
