<svg width="16" height="16" viewBox="0 0 16 16" fill="none" xmlns="http://www.w3.org/2000/svg">
<path d="M13.2375 2.54688C11.5219 2.48438 9.74687 2.45 7.92188 2.45313C6.15 2.45313 4.42812 2.4875 2.75938 2.54688C1.325 2.6 0.1875 3.77812 0.1875 5.21562V10.7844C0.1875 12.2219 1.325 13.4 2.7625 13.4531C4.47188 13.5156 6.23438 13.55 8.05 13.5469C9.83125 13.5469 11.5625 13.5125 13.2406 13.4531C14.6781 13.4 15.8125 12.2219 15.8125 10.7844V5.21562C15.8125 3.77812 14.675 2.6 13.2375 2.54688Z" fill="#FF0000"/>
<path d="M7.52475 8.78713H8.15594V6.57797H7.52475V8.78713ZM8.47153 8.31374H9.10272V6.89356H8.47153V8.31374ZM6.57797 8.15594H7.20916V6.89356H6.57797V8.15594ZM5.94678 11.3119V9.95483C5.64697 9.68131 5.41422 9.36177 5.24853 8.99621C5.08284 8.63065 5 8.24536 5 7.84035C5 7.05136 5.27614 6.38072 5.82843 5.82843C6.38072 5.27614 7.05136 5 7.84035 5C8.49783 5 9.08037 5.1933 9.58795 5.5799C10.0955 5.96651 10.4256 6.47014 10.5781 7.09081L10.9884 8.70823C11.0147 8.80817 10.9963 8.8989 10.9332 8.98043C10.8701 9.06196 10.7859 9.10272 10.6807 9.10272H10.0495V10.0495C10.0495 10.2231 9.9877 10.3717 9.86409 10.4953C9.74049 10.6189 9.59189 10.6807 9.41832 10.6807H8.78713V11.3119H8.15594V10.0495H9.41832V8.47153H10.2704L9.97061 7.24861C9.84963 6.76996 9.59189 6.38072 9.1974 6.08091C8.80291 5.7811 8.35056 5.63119 7.84035 5.63119C7.2302 5.63119 6.70947 5.84421 6.27816 6.27027C5.84684 6.69632 5.63119 7.21442 5.63119 7.82457C5.63119 8.14016 5.69562 8.43998 5.82449 8.72401C5.95336 9.00804 6.13614 9.26052 6.37283 9.48144L6.57797 9.67079V11.3119H5.94678Z" fill="white"/>
</svg>
