<svg width="118" height="84" viewBox="0 0 118 84" fill="none" xmlns="http://www.w3.org/2000/svg">
<path d="M98.375 1.45459C85.5078 0.985845 72.1953 0.728032 58.5078 0.75147C45.2188 0.75147 32.3047 1.00928 19.7891 1.45459C9.03125 1.85303 0.5 10.689 0.5 21.4702V63.2359C0.5 74.0171 9.03125 82.853 19.8125 83.2515C32.6328 83.7202 45.8516 83.978 59.4688 83.9546C72.8281 83.9546 85.8125 83.6968 98.3984 83.2515C109.18 82.853 117.688 74.0171 117.688 63.2359V21.4702C117.688 10.689 109.156 1.85303 98.375 1.45459Z" fill="#FF0000"/>
<path d="M55.4356 47.9035H60.1696V31.3348H55.4356V47.9035ZM62.5365 44.353H67.2704V33.7017H62.5365V44.353ZM48.3348 43.1696H53.0687V33.7017H48.3348V43.1696ZM43.6009 66.8391V56.6612C41.3523 54.6098 39.6066 52.2133 38.364 49.4716C37.1213 46.7299 36.5 43.8402 36.5 40.8026C36.5 34.8852 38.5711 29.8554 42.7133 25.7133C46.8554 21.5711 51.8852 19.5 57.8026 19.5C62.7338 19.5 67.1028 20.9498 70.9096 23.8493C74.7165 26.7488 77.1919 30.5261 78.3359 35.1811L81.413 47.3117C81.6102 48.0613 81.4722 48.7418 80.9988 49.3532C80.5254 49.9647 79.8942 50.2704 79.1052 50.2704H74.3713V57.3713C74.3713 58.6731 73.9078 59.7876 72.9807 60.7146C72.0536 61.6417 70.9392 62.1052 69.6374 62.1052H64.9035V66.8391H60.1696V57.3713H69.6374V45.5365H76.0282L73.7795 36.3646C72.8722 32.7747 70.9392 29.8554 67.9805 27.6068C65.0218 25.3582 61.6292 24.2339 57.8026 24.2339C53.2265 24.2339 49.321 25.8316 46.0862 29.027C42.8513 32.2224 41.2339 36.1081 41.2339 40.6843C41.2339 43.0512 41.7172 45.2998 42.6837 47.4301C43.6502 49.5603 45.021 51.4539 46.7963 53.1108L48.3348 54.5309V66.8391H43.6009Z" fill="white"/>
</svg>
