<svg width="120" height="120" viewBox="0 0 120 120" fill="none" xmlns="http://www.w3.org/2000/svg">
<path d="M99.375 19.4546C86.5078 18.9858 73.1953 18.728 59.5078 18.7515C46.2188 18.7515 33.3047 19.0093 20.7891 19.4546C10.0312 19.853 1.5 28.689 1.5 39.4702V81.2359C1.5 92.0171 10.0312 100.853 20.8125 101.251C33.6328 101.72 46.8516 101.978 60.4688 101.955C73.8281 101.955 86.8125 101.697 99.3984 101.251C110.18 100.853 118.688 92.0171 118.688 81.2359V39.4702C118.688 28.689 110.156 19.853 99.375 19.4546Z" fill="#800080"/>
<path d="M56.4356 65.9035H61.1696V49.3348H56.4356V65.9035ZM63.5365 62.353H68.2704V51.7017H63.5365V62.353ZM49.3348 61.1696H54.0687V51.7017H49.3348V61.1696ZM44.6009 84.8391V74.6612C42.3523 72.6098 40.6066 70.2133 39.364 67.4716C38.1213 64.7299 37.5 61.8402 37.5 58.8026C37.5 52.8852 39.5711 47.8554 43.7133 43.7133C47.8554 39.5711 52.8852 37.5 58.8026 37.5C63.7338 37.5 68.1028 38.9498 71.9096 41.8493C75.7165 44.7488 78.1919 48.5261 79.3359 53.1811L82.413 65.3117C82.6102 66.0613 82.4722 66.7418 81.9988 67.3532C81.5254 67.9647 80.8942 68.2704 80.1052 68.2704H75.3713V75.3713C75.3713 76.6731 74.9078 77.7876 73.9807 78.7146C73.0536 79.6417 71.9392 80.1052 70.6374 80.1052H65.9035V84.8391H61.1696V75.3713H70.6374V63.5365H77.0282L74.7795 54.3646C73.8722 50.7747 71.9392 47.8554 68.9805 45.6068C66.0218 43.3582 62.6292 42.2339 58.8026 42.2339C54.2265 42.2339 50.321 43.8316 47.0862 47.027C43.8513 50.2224 42.2339 54.1081 42.2339 58.6843C42.2339 61.0512 42.7172 63.2998 43.6837 65.4301C44.6502 67.5603 46.021 69.4539 47.7963 71.1108L49.3348 72.5309V84.8391H44.6009Z" fill="white"/>
</svg>
